<svg width="633" height="134" viewBox="0 0 633 134" fill="none" xmlns="http://www.w3.org/2000/svg">
    <circle cx="66.6604" cy="66.6604" r="66.6604" fill="url(#paint0_linear_1609_1452)"/>
    <path d="M59.267 50.3929H58.7468V50.9131V77.618V77.9677L59.0707 78.0997L67.0315 81.3433L67.2308 81.4245L67.4292 81.3412L75.1539 78.0976L75.4727 77.9637V77.618V50.9131V50.3929H74.9525H59.267Z" stroke="#197663" stroke-width="1.04043"/>
    <path fill-rule="evenodd" clip-rule="evenodd" d="M74.9526 50.6045H59.2672V51.222H74.9525V52.8027H74.9526V50.6045ZM68.2877 52.8027C67.9155 52.7896 67.5229 52.7826 67.1096 52.7826C66.6963 52.7826 66.3037 52.7896 65.9314 52.8027H65.9597C66.3236 52.7902 66.7068 52.7835 67.1097 52.7835C67.5126 52.7835 67.8959 52.7902 68.2598 52.8027H68.2877ZM59.2672 53.6346V54.8292H59.322C59.2993 54.4318 59.2809 54.0334 59.2672 53.6346ZM61.04 54.8292C61.02 54.4262 61.0097 54.0336 61.0097 53.654C61.3118 53.5029 61.7462 53.3518 62.3206 53.2189H62.325C61.7485 53.352 61.3128 53.5035 61.0099 53.655C61.0099 54.0343 61.0202 54.4266 61.0401 54.8292H61.04ZM59.3474 55.2454H59.2672V56.8552H59.4759C59.4254 56.3215 59.3824 55.7845 59.3474 55.2454ZM61.2095 56.8552C61.1466 56.3066 61.0975 55.7682 61.0638 55.2454H61.0639C61.0976 55.7682 61.1467 56.3066 61.2096 56.8552H61.2095ZM59.5169 57.2714H59.2672V58.8815H59.7053C59.6351 58.3494 59.5722 57.8123 59.5169 57.2714ZM61.4959 58.8815C61.4056 58.3397 61.3265 57.8015 61.2596 57.2714H61.2597C61.3265 57.8015 61.4057 58.3397 61.4959 58.8815H61.4959ZM59.7617 59.2977H59.2672V60.9077H60.0106C59.9206 60.3776 59.8375 59.8404 59.7617 59.2977ZM73.2094 53.6549C72.9065 53.5034 72.4708 53.352 71.8945 53.2189H71.8986C72.4729 53.3518 72.9073 53.5029 73.2094 53.654C73.2094 53.6543 73.2094 53.6546 73.2094 53.6549ZM74.8809 54.8292C74.9081 54.429 74.932 54.0259 74.9525 53.6204V53.2189H74.9526V54.8292H74.8809ZM74.7121 56.8552C74.7645 56.3245 74.8109 55.7876 74.8512 55.2454H74.9526V56.8552H74.7121ZM74.4806 58.8815C74.5496 58.352 74.6127 57.8151 74.6698 57.2714H74.9526V58.8815H74.4806ZM74.1827 60.9077C74.2693 60.38 74.3502 59.843 74.4249 59.2977H74.9526V60.9077H74.1827ZM73.8129 62.934C73.9188 62.4084 74.0189 61.8713 74.1128 61.3239H74.9526V62.934H73.8129ZM73.3625 64.9604C73.4901 64.4376 73.6119 63.9004 73.7273 63.3502H74.9526V64.9604H73.3625ZM72.8174 66.9867C72.9708 66.468 73.1181 65.9308 73.2588 65.3766H74.9526V66.9867H72.8174ZM72.1538 69.013C72.3397 68.5007 72.5193 67.9633 72.6918 67.4029H74.9526V69.013H72.1538ZM71.3261 71.0391C71.5576 70.5383 71.7824 70.0006 71.9994 69.4292H74.9526V71.0391H71.3261ZM62.2761 69.4292C62.498 69.9986 62.7277 70.5366 62.9637 71.0391H59.2672V69.4292H62.2761ZM61.562 67.4029C61.7401 67.9613 61.9256 68.499 62.1174 69.013H59.2672V67.4029H61.562ZM60.9728 65.3766C61.1189 65.9287 61.2721 66.4661 61.4318 66.9867H59.2672V65.3766H60.9728ZM60.4842 63.3502C60.6041 63.8983 60.7312 64.4356 60.8648 64.9604H59.2672V63.3502H60.4842ZM60.083 61.3239C60.1799 61.869 60.2841 62.4062 60.395 62.934H59.2672V61.3239H60.083ZM63.1647 71.4553C63.4601 72.0502 63.7646 72.5894 64.0751 73.0654H59.2672V71.4553H63.1647ZM70.2233 73.0654C70.5329 72.5911 70.8354 72.0524 71.128 71.4553H74.9526V73.0654H70.2233ZM64.3599 73.4815H59.2672V75.0916H65.975C65.4308 74.7647 64.8879 74.216 64.3599 73.4815ZM68.2929 75.0916C68.8519 74.7663 69.4042 74.2197 69.9377 73.4815H74.9526V75.0916H68.2929ZM59.2672 77.1179V75.5078H74.9526V77.1179H59.2672ZM59.2672 77.5341V77.6183L67.228 80.8619L74.9526 77.6183V77.5341H59.2672Z" fill="#197663"/>
    <path d="M67.1097 52.7837C64.7034 52.7837 61.8813 53.1976 61.0099 53.6333C61.0099 60.6046 64.4955 71.9548 67.1097 71.9548C69.724 71.9548 73.2096 62.3474 73.2096 53.6333C72.3382 53.1976 69.5161 52.7837 67.1097 52.7837Z" stroke="#197663" stroke-width="0.234793"/>
    <mask id="mask0_1609_1452" style="mask-type:alpha" maskUnits="userSpaceOnUse" x="59" y="51" width="16" height="4">
    <path d="M59.267 51.208H74.9507L74.7963 54.4159C74.7963 54.4159 73.715 53.3347 71.7071 53.0258C70.4435 52.8314 68.8788 52.6087 67.0733 52.6087C65.2328 52.6087 63.4964 52.826 62.1306 53.103C60.4018 53.4536 59.3504 54.4159 59.3504 54.4159L59.267 51.208Z" fill="#D9D9D9"/>
    </mask>
    <g mask="url(#mask0_1609_1452)">
    <path d="M59.2667 50.5166L61.0095 53.5665" stroke="#197663" stroke-width="0.234793"/>
    <path d="M60.3586 50.4268L62.1669 53.2933" stroke="#197663" stroke-width="0.234793"/>
    <path d="M63.3321 53.1683L62.4279 51.7351L61.9758 51.0184L61.7498 50.6601L61.6367 50.481" stroke="#197663" stroke-width="0.234793"/>
    <path d="M64.4105 52.9191L64.1207 52.4517L63.6627 51.7351L63.2165 51.0184L62.9934 50.6601L62.8818 50.481" stroke="#197663" stroke-width="0.234793"/>
    <path d="M65.5988 52.81L65.3727 52.4517L64.9206 51.7351L64.4685 51.0184L64.2425 50.6601L64.1295 50.481" stroke="#197663" stroke-width="0.234793"/>
    <path d="M66.8449 52.81L66.6188 52.4517L66.1667 51.7351L65.7146 51.0184L65.4886 50.6601L65.3755 50.481" stroke="#197663" stroke-width="0.234793"/>
    <path d="M67.2277 52.7165L68.2245 51.0645" stroke="#197663" stroke-width="0.234793"/>
    <path d="M68.463 52.8706L69.5442 51.0171" stroke="#197663" stroke-width="0.234793"/>
    <path d="M69.8532 52.871L70.8414 51.0645" stroke="#197663" stroke-width="0.234793"/>
    <path d="M70.9345 53.0254L72.0878 51.0645" stroke="#197663" stroke-width="0.234793"/>
    <path d="M73.7699 50.4268L72.0158 53.3345" stroke="#197663" stroke-width="0.234793"/>
    <path d="M74.9521 50.6045L73.0969 53.6436" stroke="#197663" stroke-width="0.234793"/>
    </g>
    <path fill-rule="evenodd" clip-rule="evenodd" d="M67.1852 23.5137L93.2944 71.9583L67.1852 82.8889L41.076 71.9583L67.1852 23.5137ZM67.1852 28.4758L44.3716 70.8056L67.1852 80.3565L89.9988 70.8056L67.1852 28.4758Z" fill="#197663"/>
    <path fill-rule="evenodd" clip-rule="evenodd" d="M67.0755 108.565L40.8799 73.3613L67.1737 84.3575L93.4867 73.4575L67.0755 108.565ZM65.9878 86.3935L47.8683 78.8158L65.9155 103.07L65.9878 86.3935ZM68.2764 103.06L68.3485 86.3992L86.4512 78.9002L68.2764 103.06Z" fill="#197663"/>
    <path fill-rule="evenodd" clip-rule="evenodd" d="M75.9591 65.6566L90.6797 72.2214L91.6512 70.0964L75.9591 63.0985V65.6566ZM42.6736 70.0967L58.1826 62.8379V65.418L43.6846 72.2036L42.6736 70.0967Z" fill="#197663"/>
    <path d="M507.118 65.1673C507.118 65.596 507.224 65.6541 507.026 66.4534C506.828 67.2528 505.104 74.3868 503.168 79.2234C492.081 106.92 487.353 114.767 484.299 114.767C481.244 114.767 480.756 109.074 479.295 108.919C478.605 108.846 478.32 112.087 477.346 112.574C476.614 115.254 478.223 117.204 478.808 118.178C481.731 123.052 489.132 125.732 497.72 112.33C511.184 91.3179 520.035 60.674 519.255 55.0697C518.28 53.0405 509.265 54.3388 509.265 54.3388C509.265 54.3388 491.558 84.3588 490.206 83.8218C488.854 83.2848 496.302 59.9429 496.302 59.9429L497.72 56.5077C497.72 56.5077 498.123 55.6516 497.764 55.557C496.838 55.3134 495.517 56.0247 494.101 56.4158C492.832 56.7662 487.934 56.4239 487.636 57.2171C486.905 59.1622 486.699 61.2332 486.174 63.0608C485.199 66.4534 485.203 66.2823 484.224 70.3707C483.002 75.4775 481.079 84.5732 482.535 87.1942C483.251 88.4833 483.553 90.2782 484.678 91.2478C485.566 92.0134 486.824 91.9421 488.123 91.5693C491.257 90.6698 494.515 88.2673 496.838 85.0712C500.793 79.6299 503.661 70.4204 507.118 65.1673Z" fill="#197663"/>
    <path d="M586.898 62.9098C581.771 65.0629 573.522 71.2606 571.183 79.6134C570.223 83.0421 570.308 85.5 572.673 87.4258C575.736 89.9201 584.351 82.2463 586.083 70.4174C586.51 67.5012 586.898 62.9098 586.898 62.9098ZM586.663 59.468C586.808 58.1286 586.151 51.6701 584.351 47.5618C581.513 41.0857 576.3 39.2858 571.508 36.169C571.617 35.1594 573.556 35.3697 575.736 35.6064C577.916 35.8431 579.533 34.4864 582.198 34.7756C584.566 35.5434 590 36.1019 593.299 45.3937C595.485 51.5512 595.692 63.5168 592.928 74.5725C589.091 89.9203 579.499 97.5941 569.907 95.675C560.315 93.7559 560.339 83.3301 563.258 77.7308C566.178 72.1315 568.509 68.7432 573.743 64.9803C578.197 61.7785 584.088 60.3112 586.663 59.468Z" fill="#197663"/>
    <path d="M610.648 73.8635C614.118 69.4102 614.911 68.3741 617.972 65.1757C620.545 62.4868 624.527 59.828 626.364 60.2707C627.418 60.5245 628.142 60.6404 628.89 61.452C629.783 62.4209 629.859 63.3365 629.864 64.7325C629.865 65.2401 630.048 66.1367 629.478 69.3748C628.908 72.6129 628.428 75.5175 628.039 78.0887C627.531 81.4217 627.187 83.7865 627.009 85.1831C626.83 86.5479 626.741 87.5 626.743 88.0394C625.579 93.6589 630.855 87.4127 631.659 86.5724C631.893 86.328 632.136 88.9339 632.137 89.2511C632.149 92.7933 626.719 96.7714 623.104 97.2022C621.375 97.4082 620.244 96.5931 619.017 95.3598C617.79 94.1266 617.174 92.574 617.167 90.7021C617.158 87.7833 617.486 84.5091 618.023 80.5263C618.524 76.8079 619.676 72.374 619.671 71.0732C619.64 70.756 619.578 70.5024 619.485 70.3124C619.424 70.1222 619.347 70.0273 619.255 70.0276C618.369 70.0305 616.145 72.1954 612.583 76.5221C609.021 80.8172 605.889 85.777 603.187 91.4017C602.762 92.2597 602.076 92.849 601.13 93.1694C600.977 93.2016 600.855 93.2338 600.763 93.2658C600.03 93.5221 599.183 95.9184 598.207 96.5562C597.261 97.1621 596.909 97.1659 596.481 97.1673C595.839 97.1694 595.908 97.1667 595.478 96.5653C595.048 95.9639 594.831 95.2032 594.828 94.2831C600.854 71.0807 609.45 44.0054 615.827 31.8715C616.874 30.3655 618.227 30.9078 619.535 30.083C621.355 28.9345 623.296 26.6592 625.621 26.6514C626.202 26.6495 626.676 26.8541 627.045 27.2654C627.413 27.6766 627.598 28.2153 627.6 28.8816C627.604 30.0237 624.939 37.3457 619.604 50.8475C615.936 60.1557 612.951 67.8277 610.648 73.8635Z" fill="#197663"/>
    <path d="M424.094 33.114C421.412 36.8895 417.618 43.3142 412.711 52.3881C407.835 61.4619 407.483 63.0533 401.358 75.6806C399.041 80.4079 397.411 83.8978 396.466 86.1504C389.077 99.9216 388.62 101.429 388.62 102.158C388.62 102.412 388.665 102.761 388.757 103.205C388.848 103.681 388.946 104.294 388.946 104.484C388.946 105.215 388.812 105.843 388.478 106.19C386.606 108.139 384.733 107.895 383.095 107.652C381.592 107.428 379.758 108.626 378.18 108.626C375.604 108.626 376.215 107.164 376.775 105.946C378.834 101.467 380.766 98.624 389.655 82.8667C390.539 81.3121 389.26 83.1313 396.117 69.8061C402.974 56.4491 409.618 44.2343 416.048 33.1616C410.276 32.6039 405.854 32.6787 402.014 33.1864C398.174 33.694 395.264 34.3761 393.283 35.2328C391.911 35.8356 390.448 37.7779 388.894 39.1104C387.34 40.4112 386.212 41.0616 385.511 41.0616C384.841 41.0616 384.307 40.8078 383.911 40.3002C383.545 39.7925 383.363 39.0469 383.363 38.0634C383.363 35.3059 390.079 24.3098 392.094 24.3098C392.46 24.3098 392.947 24.4368 393.557 24.6906C394.166 24.9444 394.639 25.5586 394.974 25.5586C395.309 25.5586 399.18 25.0351 406.586 23.9881C414.022 22.9094 428.117 21.8827 428.117 21.8827C428.117 21.8827 438.579 20.2983 443.29 22.7764C447.01 24.7339 448.026 26.2984 449.045 30.4498C450.914 38.0634 445.977 44.4787 441.731 47.7156C439.323 49.5557 439.334 50.3734 433.939 52.7212C429.85 54.5111 424.808 56.2864 421.65 59.8481C417.603 64.4447 420.005 69.0366 421.672 73.7123C422.526 75.5524 423.76 77.6623 425.375 80.0418C427.722 83.6269 429.252 84.2424 431.751 86.2095C438.924 91.6972 442.314 87.9151 443.289 87.4278C444.589 87.4278 441.752 92.7541 437.685 94.0066C432.736 95.5304 428.943 94.7771 424.485 92.7541C422.107 91.6754 419.928 90.2001 417.947 88.3282C415.326 85.8852 413.269 83.0457 411.776 79.8095C408.364 70.4752 410.419 65.5817 411.776 62.4655C412.313 60.3698 413.354 59.0548 414.885 57.7065C415.707 57.0085 416.363 56.3264 416.85 55.6601C417.003 55.4698 417.231 55.0256 417.536 54.3276C417.871 53.5979 418.531 53.2104 419.249 52.5784C422.323 49.8695 426.193 49.2346 428.911 48.4857C433.756 47.1531 435.266 45.8523 437.339 44.5833C439.411 43.2825 440.447 40.205 440.447 40.205C440.447 40.205 440.843 35.524 437.339 34.2867C433.864 33.0493 430.616 33.1775 424.094 33.114Z" fill="#197663"/>
    <path fill-rule="evenodd" clip-rule="evenodd" d="M470.74 41.9641C470.74 41.9641 471.693 41.8916 472.072 42.3551C472.451 42.8186 472.738 43.7888 472.738 43.7888L472.072 48.6112C472.072 48.6112 472.183 49.2194 472.405 49.5235C472.627 49.8276 472.738 50.3055 472.738 50.3055L471.739 53.4165C471.739 53.4165 471.151 53.921 470.74 54.1985C469.836 54.8092 468.21 55.3886 468.21 55.3886C468.21 55.3886 465.146 55.9534 463.415 55.2583C462.926 54.4328 462.305 53.868 461.55 53.5639C460.396 51.913 460.288 49.9065 461.011 47.7309C461.335 46.7553 461.909 46.103 462.616 45.3528C463.283 44.6441 464.747 44.0494 464.747 44.0494C464.747 44.0494 466.221 43.0952 467.277 42.7461C467.935 42.5286 469.009 42.3551 469.009 42.3551C469.009 42.3551 470.152 41.9641 470.74 41.9641ZM471.696 83.9487C468.855 88.1867 464.515 88.2919 463.803 87.7682C463.728 87.713 463.638 87.6574 463.539 87.5962C462.698 87.0778 461.206 86.1576 462.674 81.6124C462.906 81.0911 463.127 80.5955 463.337 80.1214C465.674 74.8672 466.842 72.2395 470.275 66.2595C471.407 64.2879 472.812 61.6955 472.654 60.2839C472.275 59.8969 471.927 59.5115 471.609 59.1276C471.434 58.8991 470.691 59.2644 469.951 59.6277C469.349 59.9234 468.75 60.2178 468.462 60.1896C468.127 60.6421 465.154 60.8515 465.154 60.8515C465.154 60.8515 464.015 60.6611 463.41 60.764C462.857 60.7976 462.482 60.9321 462.286 61.1676C461.663 61.9176 461.227 62.6512 460.643 63.6607C460.312 64.2345 460.112 64.6383 459.869 65.13C459.78 65.3113 459.684 65.5046 459.574 65.7228C455.045 74.689 450.83 83.458 449.933 87.5605C449.036 91.6629 452.062 94.2544 452.975 95.0321C454.53 96.3561 457.997 96.0469 457.997 96.0469C457.997 96.0469 460.842 95.9657 464.497 93.9022C468.152 91.8388 474.062 88.0388 473.466 85.3253C473.387 84.4628 472.797 84.0039 471.696 83.9487Z" fill="#197663"/>
    <path d="M552.881 93.7589C553.605 93.7589 552.915 94.4691 552.64 95.02C551.643 97.0192 548.078 97.2631 546.84 96.7037C544.941 95.8452 544.478 92.4101 543.876 88.622C540.991 92.1575 536.419 96.9256 531.008 96.8295C523.919 96.7037 521.265 89.3617 521.265 85.5736C521.265 75.3726 531.413 65.4038 535.032 62.8725C537.868 60.889 546.372 55.0532 553.852 61.107C553.852 59.6045 558.054 61.4895 558.054 64.1412C558.054 64.52 557.934 65.0251 557.814 65.4039C554.688 71.97 550.051 85.4411 550.051 91.7546C550.051 93.4247 551.675 93.5066 552.881 93.7589ZM542.947 77.4373C542.947 77.4373 550.136 66.8948 546.84 65.4039C543.544 63.9129 538.303 69.5801 536.855 71.3457C531.221 78.2171 526.303 90.2635 531.729 90.2635C535.983 90.4935 542.947 77.4373 542.947 77.4373Z" fill="#197663"/>
    <path d="M169.812 26.9908H220.048V39.4087H184.582V53.8021H217.132V65.2792H184.582V81.7423H220.8V94.1602H169.812V26.9908ZM245.677 39.4087H225.545V26.9908H280.579V39.4087H260.447V94.1602H245.677V39.4087ZM288.324 26.9908H303.094V52.7673H330.281V26.9908H345.051V94.1602H330.281V65.1852H303.094V94.1602H288.324V26.9908Z" fill="#197663"/>
    <defs>
    <linearGradient id="paint0_linear_1609_1452" x1="66.3633" y1="167.895" x2="66.3633" y2="-63.9406" gradientUnits="userSpaceOnUse">
    <stop stop-color="#9FDED6"/>
    <stop offset="0.397936" stop-color="#F8FFE6"/>
    <stop offset="0.508095" stop-color="#FBFFE6"/>
    <stop offset="0.885326" stop-color="#F4E7A1"/>
    </linearGradient>
    </defs>
    </svg>
    